<svg id="Livello_1" data-name="Livello 1" xmlns="http://www.w3.org/2000/svg" viewBox="0 0 3432.73 994.57"><defs><style>.cls-1{fill:#211c38;}.cls-2{fill:#ebeb00;}.cls-3{fill:#8eb4d6;}.cls-4{fill:#8582fc;}</style></defs><path class="cls-1" d="M0,126.48H91.73l.08,243.06q38.82-18.07,88.75-29.85t95.23-11.78q51.76,0,94.29,16.24t72.59,45.6q30.06,29.36,46.71,70.92t16.68,92.16l.09,257.51H414.42l-.09-257.51q0-62.34-37.1-99.83t-101-37.47q-47.27,0-98.22,12.68T91.84,460.77L92,810.45H.23Z" transform="translate(0 0)"/><path class="cls-1" d="M972.52,776.37A408,408,0,0,1,896.08,801q-41.24,9.16-89.41,9.17-113.05,0-174.22-57.77T571.24,586.2l-.08-259h91.73L663,585.62q0,67.62,36.63,102.3t107,34.66q50.94,0,90.34-8.13a306.94,306.94,0,0,0,75.5-26.17l-.11-361.14h91.73l.15,460.43q0,51.51-18.93,89.92a186,186,0,0,1-52.23,64.62q-33.3,26.21-78.14,39.33t-95.72,13.13q-74,0-137.34-20.49T575.94,916.14V826.59Q638,870.83,699.2,888.89t120.46,18A247.78,247.78,0,0,0,878,900.13q27.83-6.76,48.67-20.76A108.18,108.18,0,0,0,960,844.27q12.5-21.16,12.49-49.94Z" transform="translate(0 0)"/><path class="cls-1" d="M1530.84,552.46q0-62.34-36.63-99.83t-97.77-37.47A417.42,417.42,0,0,0,1301,426.49q-48.18,11.31-83.38,31.19l.12,352.39H1126l-.13-382.21a344.27,344.27,0,0,1,56.41-41.12,421.26,421.26,0,0,1,66.57-31.65,453.65,453.65,0,0,1,72.61-20.35,391.63,391.63,0,0,1,74.44-7.26q50.86,0,92.49,16.24t71.71,45.6q30,29.35,46.25,70.91t16.22,92.17l.09,257.51h-91.74Z" transform="translate(0 0)"/><path class="cls-1" d="M1684.28,326.89h65.79V193h91.73V326.89h139.49v87.85H1841.8l.07,221q0,84.94,67.2,93,11.17,1.82,30.78.89t42-3.62v78.61q-22.23,2.71-42.15,4.53a186.6,186.6,0,0,1-36.61,0,219,219,0,0,1-60.69-11.73,130.4,130.4,0,0,1-48.65-29.79q-20.41-19.86-32-50.14t-11.61-72.73L1750,414.69h-65.69Z" transform="translate(0 0)"/><path class="cls-1" d="M2590,128h91.42l.23,681.63h-91.42Z" transform="translate(0 0)"/><path class="cls-1" d="M2985.7,326.15c-133.53,0-241.79,108.26-241.79,241.79S2852.2,809.73,2985.7,809.73s241.79-108.25,241.79-241.79S3119.27,326.15,2985.7,326.15Zm3.17,401.57a156.61,156.61,0,1,1,156.61-156.61,156.61,156.61,0,0,1-156.61,156.61Z" transform="translate(0 0)"/><path class="cls-1" d="M2527.7,558.86c-1.69-18.57-1.75-21.56-5.88-41-27.72-130.42-155.93-213.68-286.36-186s-213.68,155.93-186,286.36,155.93,213.68,286.36,186a241.09,241.09,0,0,0,169.89-136.9h-93.6A156.36,156.36,0,0,1,2148.7,638.6ZM2256.9,417.52a156.46,156.46,0,0,1,170.34,79L2133.42,559a156.47,156.47,0,0,1,123.51-141.45Z" transform="translate(0 0)"/><path class="cls-2" d="M2956.07,237.75l-13.5-165.1a46.79,46.79,0,0,0-50.44-42.85c-1.48.12-3,.31-4.43.57h0a46.81,46.81,0,0,0-37.84,54.31c.26,1.47.59,2.92,1,4.36l44.55,159.54a31,31,0,0,0,35.22,22.16h0A31,31,0,0,0,2956.07,237.75Z" transform="translate(0 0)"/><path class="cls-3" d="M3138.27,275.48,3240.79,70.07a47.68,47.68,0,0,0-19.73-64.48c-1.34-.71-2.7-1.35-4.1-1.93h0a47.67,47.67,0,0,0-62.31,25.75c-.57,1.39-1.09,2.81-1.53,4.25l-72.84,217.73a31.53,31.53,0,0,0,18,38.36h0A31.52,31.52,0,0,0,3138.27,275.48Z" transform="translate(0 0)"/><path class="cls-4" d="M3272.84,399.22l138.66-90.63a46.8,46.8,0,0,0,13.61-64.78,44.29,44.29,0,0,0-2.61-3.62h0a46.81,46.81,0,0,0-65.79-7.34q-1.74,1.4-3.35,3l-119,115.27a31,31,0,0,0-2.67,41.52h0A31,31,0,0,0,3272.84,399.22Z" transform="translate(0 0)"/></svg>